<?xml version="1.0" encoding="UTF-8"?>
<svg id="Layer_5" data-name="Layer 5" xmlns="http://www.w3.org/2000/svg" viewBox="0 0 928.78 1077.78">
  <path id="arrowdown" d="M200.78,717.04c-2.04,1.01-5.54,1.83-9.92,2.39-4.34.55-9.4.83-14.48.83s-10.14-.28-14.48-.83c-4.39-.56-7.88-1.38-9.92-2.39-.49-.24-.87-.87-.87-1.88v-41.12c0-.93.37-1.83,1.04-2.49l21.74-21.62c1.38-1.37,3.62-1.37,5,0l21.74,21.62c.66.66,1.04,1.56,1.04,2.49v41.11c0,1.02-.39,1.65-.88,1.89Z" style="fill: #9a64e2; stroke: #9a64e2; stroke-width: 3px;"/>
</svg>