<?xml version="1.0" encoding="UTF-8"?>
<svg id="Layer_5" data-name="Layer 5" xmlns="http://www.w3.org/2000/svg" viewBox="0 0 928.78 1077.78">
  <path id="arrowleft" d="M101.28,666.57c-1.01-2.03-1.84-5.51-2.4-9.88-.56-4.32-.84-9.36-.84-14.41,0-5.05.28-10.09.84-14.41.56-4.37,1.39-7.84,2.4-9.87.24-.49.87-.87,1.89-.87h41.31c.94,0,1.84.37,2.5,1.03l21.72,21.64c1.38,1.37,1.38,3.6,0,4.98l-21.72,21.64c-.66.66-1.56,1.03-2.5,1.03h-41.3c-1.02,0-1.65-.39-1.89-.87Z" style="fill: #9a64e2; stroke: #9a64e2; stroke-width: 3px;"/>
</svg>