<?xml version="1.0" encoding="UTF-8"?>
<svg id="Layer_5" data-name="Layer 5" xmlns="http://www.w3.org/2000/svg" viewBox="0 0 928.78 1077.78">
  <path id="arrowup" d="M151.99,567.53c2.04-1.01,5.54-1.83,9.92-2.39,4.34-.55,9.4-.83,14.48-.83,5.08,0,10.14.28,14.48.83,4.39.56,7.88,1.38,9.92,2.39.49.24.88.87.88,1.88v41.12c0,.93-.37,1.83-1.04,2.49l-21.74,21.62c-1.38,1.37-3.62,1.37-5,0l-21.74-21.62c-.66-.66-1.04-1.56-1.04-2.49v-41.11c0-1.02.39-1.65.88-1.89Z" style="fill: #9a64e2; stroke: #9a64e2; stroke-width: 3px;"/>
</svg>