<?xml version="1.0" encoding="UTF-8"?>
<svg id="Layer_5" data-name="Layer 5" xmlns="http://www.w3.org/2000/svg" viewBox="0 0 928.78 1077.78">
  <path id="left_bumper" data-name="left bumper" d="M215.81,469.2c11.32.4,18.87,3.19,21.23,4.53v13.03c-5.22.11-10.43.78-15.15,1.56-40.99,6.39-68,11.17-104.65,20.16v-14.12c8.59-5.7,29.22-17.81,42.96-20.63,17.19-3.52,41.45-5.03,55.6-4.53Z" style="fill: none; stroke: #64a9ec; stroke-width: 3px;"/>
  <path id="right_bumper" data-name="right bumper" d="M712.18,469.2c-11.32.4-18.87,3.19-21.23,4.53v13.03c5.22.11,10.43.78,15.15,1.56,40.99,6.39,68,11.17,104.65,20.16v-14.12c-8.59-5.7-29.22-17.81-42.96-20.63-17.19-3.52-41.45-5.03-55.6-4.53Z" style="fill: none; stroke: #64a9ec; stroke-width: 3px;"/>
  <path id="front" d="M298.01,482.79c-18.6,4.83-22.24,14.09-20.72,25.66l26.28,125.28c3.54,13.58,8.53,41.76,47.51,41.76h225.84c38.98,0,43.98-28.18,47.51-41.76l26.28-125.28c1.52-11.57-2.12-20.83-20.72-25.66M298.01,482.79c64.83-4.62,115.39-6.92,165.99-6.92M298.01,482.79l-50.99,4.59M247.02,487.38c-8.29-1.34-17.39-.34-25.14.94-47.98,7.47-76.8,12.75-124.35,25.16-27.8,58.37-62.68,114.21-89.47,280.25-2.82,17.5-14.15,107.17,5.56,216.35,4.04,18.52,33.87,56.86,54.59,58.87,3.57,0,6.79-.03,9.81-.61M247.02,487.38c11.17,1.8,20.87,7.83,23.89,23.08,5.26,26.57,20.72,84.53,23.25,108.18,1.83,17.11,6.07,35.22-7.58,56.85-14.31,22.68-69.56,84.87-102.61,148.93-19.73,38.24-42.96,78.49-77.84,198.74-10.11,34.87-17.87,43.19-28.1,45.17M78.02,1068.33c15.52,3.9,39.35,10.84,52.37,6.65,15.67-5.03,43.72-83.73,63.69-141.38,30.3-87.48,91.9-73.33,100.06-71.45h.02c8.09,1.86,27.13,2.69,35.89,2.02h267.9c8.76.67,27.8-.15,35.89-2.01h.02c8.17-1.88,69.76-16.03,100.06,71.45,19.97,57.65,48.02,136.35,63.69,141.38,13.01,4.19,36.85-2.75,52.37-6.65M629.99,482.79c-64.83-4.62-115.39-6.92-165.99-6.92M629.99,482.79l50.99,4.59M680.98,487.38c8.29-1.34,17.39-.34,25.14.94,47.98,7.47,76.8,12.75,124.35,25.16,27.8,58.37,62.68,114.21,89.47,280.25,2.82,17.5,14.15,107.17-5.56,216.35-4.04,18.52-33.87,56.86-54.59,58.87-3.57,0-6.79-.03-9.81-.61M680.98,487.38c-11.17,1.8-20.87,7.83-23.89,23.08-5.26,26.57-20.72,84.53-23.25,108.18-1.83,17.11-6.07,35.22,7.58,56.85,14.31,22.68,69.56,84.87,102.61,148.93,19.73,38.24,42.96,78.49,77.84,198.74,10.11,34.87,17.87,43.19,28.1,45.17" style="fill: none; stroke: #4d4dff; stroke-width: 3px;"/>
  <path id="touchpad_front" data-name="touchpad front" d="M464,475.87c-50.6,0-101.16,2.3-165.99,6.92-18.6,4.83-22.24,14.09-20.72,25.66l26.28,125.28c3.54,13.58,8.53,41.76,47.51,41.76h225.84c38.98,0,43.98-28.18,47.51-41.76l26.28-125.28c1.52-11.57-2.12-20.83-20.72-25.66-64.83-4.62-115.39-6.92-165.99-6.92" style="fill: none; stroke: #4d4dff; stroke-width: 3px;"/>
  <path d="M682.55,521.54h0c5.76,1.01,9.61,6.48,8.59,12.22l-3.69,20.84c-1.02,5.74-6.51,9.57-12.27,8.55h0c-5.76-1.01-9.61-6.48-8.59-12.22l3.69-20.84c1.02-5.74,6.51-9.57,12.27-8.55Z" style="fill: none; stroke: #4d4dff; stroke-miterlimit: 4; stroke-width: 3px;"/>
  <path d="M245.69,521.54h0c-5.76,1.01-9.61,6.48-8.59,12.22l3.69,20.84c1.02,5.74,6.51,9.57,12.27,8.55h0c5.76-1.01,9.61-6.48,8.59-12.22l-3.69-20.84c-1.02-5.74-6.51-9.57-12.27-8.55Z" style="fill: none; stroke: #4d4dff; stroke-miterlimit: 4; stroke-width: 3px;"/>
  <path id="Planetoid" d="M468.79,733.71c-14.5,0-26.25,11.75-26.25,26.25,0,6.48,2.35,12.41,6.24,16.99v8.45c0,.36.39.59.71.41l5.79-3.34c3.95,2.38,8.57,3.74,13.52,3.74,14.5,0,26.25-11.75,26.25-26.25s-11.75-26.25-26.25-26.25ZM468.91,778.68c-10.27,0-18.6-8.33-18.6-18.6s8.33-18.6,18.6-18.6,18.6,8.33,18.6,18.6-8.33,18.6-18.6,18.6Z" style="fill: #eef0f2; stroke-width: 0px;"/>
  <circle id="Moon" cx="439.75" cy="730.44" r="5.8" style="fill: #eef0f2; stroke-width: 0px;"/>
  <ellipse id="x" cx="683.37" cy="641.78" rx="29.82" ry="29.69" style="fill: none; stroke: #9a64e2; stroke-width: 3px;"/>
  <ellipse id="y" cx="750.09" cy="575.37" rx="29.82" ry="29.69" style="fill: none; stroke: #70db8a; stroke-width: 3px;"/>
  <ellipse id="b" cx="816.81" cy="641.78" rx="29.82" ry="29.69" style="fill: none; stroke: #e8676a; stroke-width: 3px;"/>
  <ellipse id="a" cx="750.09" cy="708.19" rx="29.82" ry="29.69" style="fill: none; stroke: #64a9ec; stroke-width: 3px;"/>
  <ellipse id="right_stick_ring" data-name="right stick ring" cx="611.09" cy="766.06" rx="55.6" ry="55.35" style="fill: none; stroke: #4d4dff; stroke-width: 3px;"/>
  <ellipse id="left_stick_ring" data-name="left stick ring" cx="316.91" cy="766.06" rx="55.6" ry="55.35" style="fill: none; stroke: #4d4dff; stroke-width: 3px;"/>
  <path id="arrowup" d="M151.99,567.53c2.04-1.01,5.54-1.83,9.92-2.39,4.34-.55,9.4-.83,14.48-.83,5.08,0,10.14.28,14.48.83,4.39.56,7.88,1.38,9.92,2.39.49.24.88.87.88,1.88v41.12c0,.93-.37,1.83-1.04,2.49l-21.74,21.62c-1.38,1.37-3.62,1.37-5,0l-21.74-21.62c-.66-.66-1.04-1.56-1.04-2.49v-41.11c0-1.02.39-1.65.88-1.89Z" style="fill: none; stroke: #9a64e2; stroke-width: 3px;"/>
  <path id="arrowdown" d="M200.78,717.04c-2.04,1.01-5.54,1.83-9.92,2.39-4.34.55-9.4.83-14.48.83s-10.14-.28-14.48-.83c-4.39-.56-7.88-1.38-9.92-2.39-.49-.24-.87-.87-.87-1.88v-41.12c0-.93.37-1.83,1.04-2.49l21.74-21.62c1.38-1.37,3.62-1.37,5,0l21.74,21.62c.66.66,1.04,1.56,1.04,2.49v41.11c0,1.02-.39,1.65-.88,1.89Z" style="fill: none; stroke: #9a64e2; stroke-width: 3px;"/>
  <path id="arrowright" d="M251.49,618c1.01,2.03,1.84,5.51,2.4,9.88.56,4.32.84,9.36.84,14.41s-.28,10.09-.84,14.41c-.56,4.37-1.39,7.84-2.4,9.87-.24.49-.87.87-1.89.87h-41.31c-.94,0-1.84-.37-2.5-1.03l-21.72-21.64c-1.38-1.38-1.38-3.6,0-4.98l21.72-21.64c.66-.66,1.56-1.03,2.5-1.03h41.3c1.02,0,1.65.39,1.9.87Z" style="fill: none; stroke: #9a64e2; stroke-width: 3px;"/>
  <path id="arrowleft" d="M101.28,666.57c-1.01-2.03-1.84-5.51-2.4-9.88-.56-4.32-.84-9.36-.84-14.41,0-5.05.28-10.09.84-14.41.56-4.37,1.39-7.84,2.4-9.87.24-.49.87-.87,1.89-.87h41.31c.94,0,1.84.37,2.5,1.03l21.72,21.64c1.38,1.37,1.38,3.6,0,4.98l-21.72,21.64c-.66.66-1.56,1.03-2.5,1.03h-41.3c-1.02,0-1.65-.39-1.89-.87Z" style="fill: none; stroke: #9a64e2; stroke-width: 3px;"/>
  <path id="back" d="M205.46,69.1s.05.03.15.1M205.46,69.1l.15.1M205.46,69.1c-8.09-7.03-18.7-12.58-24.77-15.08M205.61,69.2c1.85,1.31,20.17,15.18,22.09,50.71,1,18.53-3.54,22.64-2.02,93.58M205.61,69.2c18.15,12.59,28.3,21.95,46.35,39.14,17.19,16.37,42.12,17.11,51.05,17.11h322.74c8.93,0,33.86-.74,51.05-17.11,18.05-17.19,28.2-26.55,46.35-39.14M225.68,213.5c10.11,31.7,34.37,50.83,82.9,52.34M225.68,213.5c4.81,62.2-17.21,74.76-52.97,77.68M308.58,265.84c-42.46,0-52.57,30.19-51.56,42.26M308.58,265.84h311.62M272.18,322.68c-1.01-6.03-4.04-9.59-4.04-16.09s4.55-14.09,9.1-18.62c5.08-5.06,14.15-11.07,26.28-11.07h321.73c12.13,0,21.2,6.01,26.28,11.07,4.55,4.53,9.1,12.08,9.1,18.62s-3.03,10.06-4.04,16.09M272.18,322.68h-11.63M272.18,322.68h384.41M257.02,308.1c-7.37-11.92-27.32-18.82-84.31-16.92M257.02,308.1l3.54,14.58M172.71,291.18c-5.57.19-11.49.46-17.79.81M172.71,291.18c-5.61.46-11.56.68-17.79.81M154.91,291.99c-25.27.55-48.12-.91-68.74-31.7-9.1-13.59-12.53-46.08,3.54-106.67,16.68-62.89,41.95-87.55,41.95-87.55M260.56,322.68c-10.11-14.08-41.45-18.61-92.5-16.09-60.62,2.99-80.14-14.74-93.01-41.77-9.1-19.12-7.56-47.54,0-92.58,12.74-75.87,41.95-94.09,56.61-106.16M260.56,322.68c-45.83-1.85-136.48-5.74-162.76-6.54-26.28-.81-38.42-11.56-43.98-16.59-4.35-3.94-22.54-21.44-39.93-72.97C-7.85,162.18,4.79,98.79,8.83,81.68c4.04-17.11,16.17-45.78,39.93-62.39C65.45,7.64,82.6.2,108.41,1.69c34.88,2.01,56.95,31.7,72.28,52.33M131.66,66.08c17.19-17.61,42.96-14.57,49.03-12.07M723.31,69.1s-.05.03-.15.1M723.31,69.1l-.15.1M723.31,69.1c8.09-7.03,18.7-12.58,24.77-15.08M723.17,69.2c-1.85,1.31-20.17,15.18-22.09,50.71-1,18.53,3.54,22.64,2.02,93.58M703.1,213.5c-10.11,31.7-34.37,50.83-82.9,52.34M703.1,213.5c-4.81,62.2,17.21,74.76,52.97,77.68M620.2,265.84c42.46,0,52.57,30.19,51.56,42.26M656.59,322.68h11.63M671.76,308.1c7.37-11.92,27.32-18.82,84.31-16.92M671.76,308.1l-3.54,14.58M756.07,291.18c5.57.19,11.49.46,17.79.81M756.07,291.18c5.61.46,11.56.68,17.79.81M773.86,291.99c25.27.55,48.12-.91,68.74-31.7,9.1-13.59,12.53-46.08-3.54-106.67-16.68-62.89-41.95-87.55-41.95-87.55M668.22,322.68c10.11-14.08,41.45-18.61,92.5-16.09,60.62,2.99,80.15-14.74,93.01-41.77,9.1-19.12,7.56-47.54,0-92.58-12.74-75.87-41.95-94.09-56.61-106.16M668.22,322.68c45.83-1.85,136.48-5.74,162.76-6.54,26.28-.81,38.42-11.56,43.98-16.59,4.35-3.94,22.54-21.44,39.93-72.97,21.74-64.4,9.1-127.8,5.05-144.9s-16.17-45.78-39.93-62.39c-16.68-11.66-33.83-19.09-59.65-17.6-34.88,2.01-56.95,31.7-72.28,52.33M797.11,66.08c-17.19-17.61-42.96-14.57-49.03-12.07" style="fill: none; stroke: #4d4dff; stroke-width: 3px;"/>
  <path id="left_trigger" data-name="left trigger" d="M221.5,122.82c-1.75-33.68-18.67-46.67-20.32-48.16-7.39-6.67-17.09-11.92-22.63-14.29s-29.1-5.25-44.81,11.43c0,0-23.1,23.36-38.34,82.96-1.62,6.31-3.01,12.31-4.22,17.99l128.25,2.52c.43-33.4,2.78-38.79,2.07-52.45Z" style="fill: none; stroke: #ed9b55; stroke-width: 3px;"/>
  <path id="leftbumperback" d="M219.66,211.51c5.08,68.18-22.63,73.43-64.67,74.38-23.09.52-43.97-.86-62.82-30.04-7.1-10.99-10.42-35.04-2.11-77.56l129.32,2.52c-.05,8.47.02,18.55.27,30.7Z" style="fill: none; stroke: #64a9ec; stroke-width: 3px;"/>
  <path id="right_trigger" data-name="right trigger" d="M707.02,122.82c1.75-33.68,18.57-46.6,20.19-48.06,7.39-6.67,17.23-12.02,22.77-14.39s29.1-5.25,44.81,11.43c0,0,23.1,23.36,38.34,82.96,1.62,6.31,3.01,12.31,4.22,17.99l-128.25,2.52c-.43-33.4-2.78-38.79-2.07-52.45Z" style="fill: none; stroke: #ed9b55; stroke-width: 3px;"/>
  <path id="rightbumperback" d="M708.87,211.51c-5.08,68.18,22.63,73.43,64.67,74.38,23.09.52,43.97-.86,62.82-30.04,7.1-10.99,10.42-35.04,2.11-77.56l-129.33,2.52c.05,8.47-.02,18.55-.27,30.7Z" style="fill: none; stroke: #64a9ec; stroke-width: 3px;"/>
  <path id="toiuchpad_back" data-name="toiuchpad back" d="M272.18,322.68c-1.01-6.03-4.04-9.59-4.04-16.09s4.55-14.09,9.1-18.62c5.08-5.06,14.15-11.07,26.28-11.07h321.73c12.13,0,21.2,6.01,26.28,11.07,4.55,4.53,9.1,12.08,9.1,18.62s-3.03,10.06-4.04,16.09h-384.41Z" style="fill: none; stroke: #4d4dff; stroke-width: 3px;"/>
</svg>