<?xml version="1.0" encoding="UTF-8"?>
<svg id="Layer_5" data-name="Layer 5" xmlns="http://www.w3.org/2000/svg" viewBox="0 0 928.78 1077.78">
  <path id="right_bumper" data-name="right bumper" d="M712.18,469.2c-11.32.4-18.87,3.19-21.23,4.53v13.03c5.22.11,10.43.78,15.15,1.56,40.99,6.39,68,11.17,104.65,20.16v-14.12c-8.59-5.7-29.22-17.81-42.96-20.63-17.19-3.52-41.45-5.03-55.6-4.53Z" style="fill: #64a9ec; stroke-width: 0px;"/>
  <path id="rightbumperback" d="M708.87,211.51c-5.08,68.18,22.63,73.43,64.67,74.38,23.09.52,43.97-.86,62.82-30.04,7.1-10.99,10.42-35.04,2.11-77.56l-129.33,2.52c.05,8.47-.02,18.55-.27,30.7Z" style="fill: #64a9ec; stroke: #64a9ec; stroke-width: 3px;"/>
</svg>