<?xml version="1.0" encoding="UTF-8"?>
<svg id="Layer_5" data-name="Layer 5" xmlns="http://www.w3.org/2000/svg" viewBox="0 0 928.78 1077.78">
  <path id="touchpad_front" data-name="touchpad front" d="M464,475.87c-50.6,0-101.16,2.3-165.99,6.92-18.6,4.83-22.24,14.09-20.72,25.66l26.28,125.28c3.54,13.58,8.53,41.76,47.51,41.76h225.84c38.98,0,43.98-28.18,47.51-41.76l26.28-125.28c1.52-11.57-2.12-20.83-20.72-25.66-64.83-4.62-115.39-6.92-165.99-6.92" style="fill: #4d4dff; stroke: #4d4dff; stroke-width: 3px;"/>
  <path id="toiuchpad_back" data-name="toiuchpad back" d="M272.18,322.68c-1.01-6.03-4.04-9.59-4.04-16.09s4.55-14.09,9.1-18.62c5.08-5.06,14.15-11.07,26.28-11.07h321.73c12.13,0,21.2,6.01,26.28,11.07,4.55,4.53,9.1,12.08,9.1,18.62s-3.03,10.06-4.04,16.09h-384.41Z" style="fill: #4d4dff; stroke: #4d4dff; stroke-width: 3px;"/>
</svg>