<?xml version="1.0" encoding="UTF-8"?>
<svg id="Layer_1_copy_2" data-name="Layer 1 copy 2" xmlns="http://www.w3.org/2000/svg" viewBox="0 0 925.22 1076.3">
  <path d="M807.44,539.46c-5.25-7.64-14.76-25.82-16.45-28.16M807.44,539.46c5.25,7.64,22.62,57.33,32.05,87.5,1.85,6.71,4.04,26.45-6.06,41.74-10.64,16.09-117.53,133.77-169.73,191.1-4.55,5.86-11.11,14.58-11.11,24.14s-1.52,12.07-2.53,15.09M807.44,539.46l-5.34-7.04-11.35-10.96c-11.11-6.54-36.24-22.02-50.79-27.25-18.19-6.54-53.04-17.6-65.67-19.61M790.99,511.3l9.09,7.04,17.68,21.12c31.49,74.26,95.57,248.73,104.06,348.51,10.61,124.72-26.27,147.35-37.38,157.91-7,6.65-25.26,19.62-51.52,28.67h-7.07c-9.86-4.42-25.97-17.46-34.26-24.16l-.6-.49c-9.8-7.93-76.78-95.05-98.5-116.67-12.56-12.5-35.36-28.67-42.43-34.2M790.99,511.3c-55.06-34.2-82.69-39.43-104.57-44.76M650.06,899.04c-13.13-6.04-187.41-4.53-187.41-4.53M586.91,469.56v-17.1c-48.61-.71-86.54-1.13-124.27-1.17-37.73.04-75.66.46-124.27,1.17v17.1M586.91,469.56l3.99.06c5.77,0,16.76-1.26,27.33-5.59M586.91,469.56h-248.53M618.23,464.03c5.69-2.33,13.83-3.36,23.15-3.36,13.84,0,30.26,2.26,45.05,5.87M618.23,464.03c14.14-5.79,43.44-3.52,68.19,2.51M739.97,494.2c-18.18-6.54-53.04-17.6-65.67-19.61-12.63-2.01-31.82-6.04-52.53,16.09-16.57,17.7-48.16,48.45-61.12,62.36-6.06,5.53-17.17,11.06-22.23,11.06h-151.54c-5.05,0-16.16-5.53-22.23-11.06-12.96-13.91-44.55-44.66-61.12-62.36-20.71-22.13-39.91-18.11-52.53-16.09-12.63,2.01-47.48,13.07-65.67,19.61M117.86,539.46c5.25-7.64,14.76-25.82,16.45-28.16M117.86,539.46c-5.25,7.64-22.62,57.33-32.04,87.5-1.85,6.71-4.04,26.45,6.06,41.74,10.64,16.09,117.53,133.77,169.73,191.1,4.55,5.86,11.11,14.58,11.11,24.14s1.52,12.07,2.53,15.09M117.86,539.46l5.34-7.04,11.35-10.96c11.11-6.54,36.24-22.02,50.79-27.25,18.19-6.54,53.04-17.6,65.67-19.61M134.31,511.3l-9.09,7.04-17.68,21.12c-31.49,74.26-95.57,248.73-104.06,348.51-10.61,124.71,26.27,147.35,37.38,157.91,7,6.65,25.26,19.62,51.52,28.67h7.07c9.86-4.42,25.97-17.46,34.26-24.16l.6-.49c9.8-7.93,76.78-95.05,98.5-116.67,12.56-12.5,35.36-28.67,42.43-34.2M134.31,511.3c55.06-34.2,82.69-39.43,104.57-44.76M275.24,899.04c13.13-6.04,187.41-4.53,187.41-4.53M338.38,469.56l-3.99.06c-5.77,0-16.76-1.26-27.33-5.59M307.06,464.03c-5.69-2.33-13.83-3.36-23.15-3.36-13.84,0-30.26,2.26-45.05,5.87M307.06,464.03c-14.14-5.79-43.44-3.52-68.19,2.51" style="fill: none; stroke: #a2b2ee; stroke-linecap: round; stroke-width: 3px;"/>
  <circle cx="530.39" cy="610.44" r="20.73" style="fill: none; stroke: #a2b2ee; stroke-width: 3px;"/>
  <circle cx="394.9" cy="610.44" r="20.73" style="fill: none; stroke: #a2b2ee; stroke-width: 3px;"/>
  <circle cx="339.29" cy="761.1" r="75.33" style="fill: none; stroke: #a2b2ee; stroke-width: 3px;"/>
  <circle cx="584.99" cy="753.46" r="70.78" style="fill: none; stroke: #a2b2ee; stroke-width: 3px;"/>
  <circle cx="225.04" cy="608.42" r="70.78" style="fill: none; stroke: #a2b2ee; stroke-width: 3px;"/>
  <path d="M314.14,732.95v-42.74c4.35-1.62,14.24-4.32,25.26-4.32s20.9,2.71,25.26,4.33v42.74h-50.51Z" style="fill: none; stroke: #a2b2ee; stroke-width: 3px;"/>
  <path d="M367.69,735.99h42.66c1.62,4.36,4.32,14.27,4.32,25.31s-2.7,20.94-4.32,25.3h-42.66v-50.61Z" style="fill: none; stroke: #a2b2ee; stroke-width: 3px;"/>
  <path d="M364.65,832.37c-4.35,1.62-14.24,4.33-25.26,4.33s-20.9-2.71-25.26-4.33v-42.74h50.51v42.74Z" style="fill: none; stroke: #a2b2ee; stroke-width: 3px;"/>
  <path d="M268.45,786.6c-1.62-4.36-4.32-14.27-4.32-25.3s2.7-20.94,4.32-25.31h42.66v50.61h-42.66Z" style="fill: none; stroke: #a2b2ee; stroke-width: 3px;"/>
  <circle cx="768.01" cy="610.44" r="31.85" style="fill: none; stroke: #a2b2ee; stroke-width: 3px;"/>
  <circle cx="703.3" cy="673.13" r="31.85" style="fill: none; stroke: #a2b2ee; stroke-width: 3px;"/>
  <circle cx="638.58" cy="610.44" r="31.85" style="fill: none; stroke: #a2b2ee; stroke-width: 3px;"/>
  <circle cx="703.3" cy="547.76" r="31.85" style="fill: none; stroke: #a2b2ee; stroke-width: 3px;"/>
  <circle cx="438.01" cy="491.69" r="5.8" style="fill: none; stroke: #a2b2ee; stroke-miterlimit: 10;"/>
  <path d="M216.72,226.73c-26.5,2.5-84.5,13.5-158.5,32.5,5,42.5,9.5,95.5,252.5,95.5-13-31-18.05-52.5-21-69-2.5-14-4.5-27-5-47.5-18,1.17-37,3-50.5,0-8.18-1.82-16-7-17.5-11.5Z" style="fill: none; stroke: #a2b2ee; stroke-width: 3px;"/>
  <path d="M68.22,102.73c-14,60-13.67,125.5-10.5,151.5,62-15.5,106-25.5,158-32.5-20.5-121-20.5-164.5-62-164.5-11,.5-32.46,7.13-50.5,14-21,8-32.32,20-35,31.5Z" style="fill: none; stroke: #a2b2ee; stroke-width: 3px;"/>
  <path d="M708.22,226.73c26.5,2.5,84.5,13.5,158.5,32.5-5,42.5-9.5,95.5-252.5,95.5,13-31,18.05-52.5,21-69,2.5-14,4.5-27,5-47.5,18,1.17,37,3,50.5,0,8.18-1.82,16-7,17.5-11.5Z" style="fill: none; stroke: #a2b2ee; stroke-width: 3px;"/>
  <path d="M320.54,364.23h146M320.54,364.23c-10.17-16-31.32-70-31.32-130.5h177.32M320.54,364.23c-4.15,0-8.43,0-12.82.01M466.54,218.23h-211c-22.4,0-24-11-26-19,0,0-17.01-95-23.5-117-6.49-22-13.01-30.56-29-38.5-22.5-9.5-63.5,5-86.5,16.5-17.09,8.54-33.87,23-39,45.5-6.5,28.5-18.5,103-5.5,165,13.52,64.5,63.49,78.25,155.7,89.5,32.51,3.97,72.3,4.04,105.98,4.01M467.22,106.23h-198.5c-8.5,0-21.2.3-30-8.5-5.32-5.31-14.84-16.73-22-25.5-26.04-31.89-40.31-54.84-67.5-65-17.83-6.67-59-12.8-93,14C13.72,54.73,3.22,111.23,1.72,134.73c-1.5,23.5,8.78,97.38,31,145,10.5,22.5,33.3,49.62,56,63,39,23,140.6,48.71,219,21.51M604.4,364.23h-146M604.4,364.23c10.17-16,31.32-70,31.32-130.5h-177.32M604.4,364.23c4.15,0,8.43,0,12.82.01M458.4,218.23h211c22.4,0,24-11,26-19,0,0,17.01-95,23.5-117,6.49-22,13.01-30.56,29-38.5,22.5-9.5,63.5,5,86.5,16.5,17.09,8.54,33.87,23,39,45.5,6.5,28.5,18.5,103,5.5,165-13.52,64.5-63.49,78.25-155.7,89.5-32.51,3.97-72.3,4.04-105.97,4.01M457.72,106.23h198.5c8.5,0,21.2.3,30-8.5,5.32-5.31,14.84-16.73,22-25.5,26.03-31.89,40.31-54.84,67.5-65,17.83-6.67,59-12.8,93,14,42.5,33.5,53,90,54.5,113.5,1.5,23.5-8.78,97.38-31,145-10.5,22.5-33.3,49.62-56,63-39,23-140.6,48.71-219,21.51" style="fill: none; stroke: #a2b2ee; stroke-width: 3px;"/>
  <path d="M856.72,102.73c14,60,13.67,125.5,10.5,151.5-62-15.5-106-25.5-158-32.5,20.5-121,20.5-164.5,62-164.5,11,.5,32.46,7.13,50.5,14,21,8,32.32,20,35,31.5Z" style="fill: none; stroke: #a2b2ee; stroke-width: 3px;"/>
  <path d="M307.06,464.03c-14.14-5.79-43.44-3.52-68.19,2.51-21.87,5.33-49.5,10.56-104.57,44.76l-.18.11c.05-.11,4.05-8.62,4.05-8.62l4.7-9.41c4.95-9.9,7.29-14.59,19.06-21.94,40.44-25.28,87.97-34.88,113.75-38.42,13.32-1.83,21.74-.51,26.79,1.52,0,0,6.98,2.83,14.66,8.09s11.63,7.08,15.17,8.59c1.84.5,3.15.95,6.07,1.23v17.1s-3.99.06-3.99.06c-5.77,0-16.76-1.26-27.33-5.59" style="fill: none; stroke: #a2b2ee; stroke-miterlimit: 10; stroke-width: 3px;"/>
  <path d="M618.23,464.03c-10.57,4.33-21.56,5.59-27.33,5.59,0,0-3.99-.06-3.99-.06v-17.1c2.92-.28,4.22-.73,6.07-1.23,3.54-1.52,7.48-3.34,15.17-8.59s14.66-8.09,14.66-8.09c5.06-2.02,13.48-3.35,26.79-1.52,25.78,3.54,73.31,13.14,113.75,38.42,11.77,7.35,14.11,12.04,19.06,21.94l4.7,9.41s4,8.51,4.05,8.62l-.18-.11c-55.06-34.2-82.69-39.43-104.57-44.76-24.75-6.03-54.05-8.31-68.19-2.51" style="fill: none; stroke: #a2b2ee; stroke-miterlimit: 10; stroke-width: 3px;"/>
  <path d="M467.05,494.95c-14.5,0-26.25,11.75-26.25,26.25,0,6.48,2.35,12.41,6.24,16.99v8.45c0,.36.39.59.71.41l5.79-3.34c3.95,2.38,8.57,3.74,13.52,3.74,14.5,0,26.25-11.75,26.25-26.25s-11.75-26.25-26.25-26.25ZM467.17,539.93c-10.27,0-18.6-8.33-18.6-18.6s8.33-18.6,18.6-18.6,18.6,8.33,18.6,18.6-8.33,18.6-18.6,18.6Z" style="fill: none; stroke: #a2b2ee; stroke-miterlimit: 10;"/>
</svg>