<?xml version="1.0" encoding="UTF-8"?>
<svg id="Layer_1" data-name="Layer 1" xmlns="http://www.w3.org/2000/svg" viewBox="0 0 925.22 1076.3">
  <path id="Left_Bumper_Rear" data-name="Left Bumper Rear" d="M216.72,226.73c-26.5,2.5-84.5,13.5-158.5,32.5,5,42.5,9.5,95.5,252.5,95.5-13-31-18.05-52.5-21-69-2.5-14-4.5-27-5-47.5-18,1.17-37,3-50.5,0-8.18-1.82-16-7-17.5-11.5Z" style="fill: #64a9ec; stroke-width: 0px;"/>
  <path id="Left_Bumper_Face" data-name="Left Bumper Face" d="M307.06,464.03c-14.14-5.79-43.44-3.52-68.19,2.51-21.87,5.33-49.5,10.56-104.57,44.76l-.18.11c.05-.11,4.05-8.62,4.05-8.62l4.7-9.41c4.95-9.9,7.29-14.59,19.06-21.94,40.44-25.28,87.97-34.88,113.75-38.42,13.32-1.83,21.74-.51,26.79,1.52,0,0,6.98,2.83,14.66,8.09s11.63,7.08,15.17,8.59c1.84.5,3.15.95,6.07,1.23v17.1s-3.99.06-3.99.06c-5.77,0-16.76-1.26-27.33-5.59" style="fill: #64a9ec; stroke-width: 0px;"/>
</svg>