<?xml version="1.0" encoding="UTF-8"?>
<svg id="Layer_1" data-name="Layer 1" xmlns="http://www.w3.org/2000/svg" viewBox="0 0 925.22 1076.3">
  <path id="Right_Bumper_Rear" data-name="Right Bumper Rear" d="M708.22,226.73c26.5,2.5,84.5,13.5,158.5,32.5-5,42.5-9.5,95.5-252.5,95.5,13-31,18.05-52.5,21-69,2.5-14,4.5-27,5-47.5,18,1.17,37,3,50.5,0,8.18-1.82,16-7,17.5-11.5Z" style="fill: #64a9ec; stroke-width: 0px;"/>
  <path id="Right_Bumper_Face" data-name="Right Bumper Face" d="M618.23,464.03c-10.57,4.33-21.56,5.59-27.33,5.59,0,0-3.99-.06-3.99-.06v-17.1c2.92-.28,4.22-.73,6.07-1.23,3.54-1.52,7.48-3.34,15.17-8.59s14.66-8.09,14.66-8.09c5.06-2.02,13.48-3.35,26.79-1.52,25.78,3.54,73.31,13.14,113.75,38.42,11.77,7.35,14.11,12.04,19.06,21.94l4.7,9.41s4,8.51,4.05,8.62l-.18-.11c-55.06-34.2-82.69-39.43-104.57-44.76-24.75-6.03-54.05-8.31-68.19-2.51" style="fill: #64a9ec; stroke-width: 0px;"/>
</svg>